<svg width="402" height="191" viewBox="0 0 402 191" fill="none" xmlns="http://www.w3.org/2000/svg">
<path fill-rule="evenodd" clip-rule="evenodd" d="M201 48.5707C174.806 48.5707 153.571 69.8055 153.571 96C153.571 122.194 174.806 143.429 201 143.429C227.194 143.429 248.429 122.194 248.429 96C248.429 69.8055 227.194 48.5707 201 48.5707ZM151 96C151 68.3858 173.386 46 201 46C228.614 46 251 68.3858 251 96C251 123.614 228.614 146 201 146C173.386 146 151 123.614 151 96Z" fill="#2766EE"/>
<path d="M153.571 96C153.571 69.8055 174.806 48.5707 201 48.5707C227.194 48.5707 248.429 69.8055 248.429 96C248.429 122.194 227.194 143.429 201 143.429C174.806 143.429 153.571 122.194 153.571 96Z" fill="#F5F5F5"/>
<path d="M201 41C170.624 41 146 65.6243 146 96C146 126.376 170.624 151 201 151C231.376 151 256 126.376 256 96C256 65.6243 231.376 41 201 41Z" stroke="#F5F5F5" stroke-width="10"/>
<path fill-rule="evenodd" clip-rule="evenodd" d="M192.247 59.4961H209.753L227.735 77.2099V95.9999H210.769V110.396H227.735V129.933H174.265V110.396H191.231V95.9999H174.265V77.2099L192.247 59.4961ZM193.301 62.0668L176.835 78.2861V93.4293H193.802V112.967H176.835V127.362H225.165V112.967H208.198V93.4293H225.165V78.2861L208.699 62.0668H193.301Z" fill="#2766EE"/>
<path d="M253.432 52.536C253.432 53.208 253 53.784 252.6 54.136L253.864 56.216H252.12L251.176 54.536H250.728V56.216H249.192V50.872H251.416C252.616 50.872 253.432 51.512 253.432 52.536ZM250.728 52.168V53.352H251.544C251.752 53.176 251.864 52.888 251.864 52.696C251.864 52.44 251.672 52.168 251.272 52.168H250.728ZM245.576 53.64C245.576 50.616 247.848 48.104 251.256 48.104C254.696 48.104 256.952 50.616 256.952 53.64C256.952 56.68 254.696 59.192 251.256 59.192C247.848 59.192 245.576 56.68 245.576 53.64ZM247.16 53.64C247.16 55.848 248.808 57.672 251.256 57.672C253.736 57.672 255.352 55.848 255.352 53.64C255.352 51.432 253.736 49.608 251.256 49.608C248.808 49.608 247.16 51.432 247.16 53.64Z" fill="#2766EE"/>
</svg>
